<svg version="1.1" id="Layer_1" xmlns="http://www.w3.org/2000/svg" xmlns:xlink="http://www.w3.org/1999/xlink" x="0px" y="0px"
	 width="100%" viewBox="0 0 60 60" enable-background="new 0 0 60 60" xml:space="preserve">
<path fill="#000000" opacity="1.000000" stroke="none" 
	d="
M37.000072,61.000000 
	C24.666719,61.000000 12.833386,61.000000 1.000040,61.000000 
	C1.000027,41.000019 1.000027,21.000036 1.000013,1.000040 
	C20.999983,1.000027 40.999966,1.000027 60.999962,1.000013 
	C60.999973,20.999983 60.999973,40.999966 60.999985,60.999973 
	C53.166698,61.000000 45.333393,61.000000 37.000072,61.000000 
M18.509125,15.000000 
	C14.070320,15.000000 9.631515,15.000000 5.238903,15.000000 
	C5.238903,16.563345 5.238903,17.635498 5.238903,18.827518 
	C22.513132,18.827518 39.553619,18.827518 56.964073,18.827518 
	C56.871258,17.462660 56.791885,16.295464 56.703789,15.000000 
	C44.051380,15.000000 31.778349,15.000000 18.509125,15.000000 
M47.458900,33.000000 
	C50.572376,33.000000 53.685852,33.000000 56.767193,33.000000 
	C56.767193,31.445702 56.767193,30.373663 56.767193,29.169525 
	C39.497890,29.169525 22.456163,29.169525 5.037192,29.169525 
	C5.126407,30.530739 5.202898,31.697821 5.288244,33.000000 
	C19.269157,33.000000 32.870850,33.000000 47.458900,33.000000 
M54.253654,43.000195 
	C38.001198,43.000195 21.748741,43.000195 5.295868,43.000195 
	C5.295868,44.451405 5.295868,45.617996 5.295868,46.777515 
	C22.633356,46.777515 39.679436,46.777515 58.112740,46.777515 
	C56.767597,45.033596 55.984394,44.018204 54.253654,43.000195 
z"/>
<path fill="#FFFFFF" opacity="1.000000" stroke="none" 
	d="
M19.007221,15.000000 
	C31.778349,15.000000 44.051380,15.000000 56.703789,15.000000 
	C56.791885,16.295464 56.871258,17.462660 56.964073,18.827518 
	C39.553619,18.827518 22.513132,18.827518 5.238903,18.827518 
	C5.238903,17.635498 5.238903,16.563345 5.238903,15.000000 
	C9.631515,15.000000 14.070320,15.000000 19.007221,15.000000 
z"/>
<path fill="#FFFFFF" opacity="1.000000" stroke="none" 
	d="
M46.965721,33.000000 
	C32.870850,33.000000 19.269157,33.000000 5.288244,33.000000 
	C5.202898,31.697821 5.126407,30.530739 5.037192,29.169525 
	C22.456163,29.169525 39.497890,29.169525 56.767193,29.169525 
	C56.767193,30.373663 56.767193,31.445702 56.767193,33.000000 
	C53.685852,33.000000 50.572376,33.000000 46.965721,33.000000 
z"/>
<path fill="#FFFFFF" opacity="1.000000" stroke="none" 
	d="
M54.727421,43.001503 
	C55.984394,44.018204 56.767597,45.033596 58.112740,46.777515 
	C39.679436,46.777515 22.633356,46.777515 5.295868,46.777515 
	C5.295868,45.617996 5.295868,44.451405 5.295868,43.000195 
	C21.748741,43.000195 38.001198,43.000195 54.727421,43.001503 
z"/>
</svg>