<?xml version="1.0" encoding="utf-8"?>
<!-- Generator: Adobe Illustrator 27.2.0, SVG Export Plug-In . SVG Version: 6.00 Build 0)  -->
<svg version="1.1" id="Layer_1" xmlns="http://www.w3.org/2000/svg" xmlns:xlink="http://www.w3.org/1999/xlink" x="0px" y="0px"
	 viewBox="0 0 230 230" style="enable-background:new 0 0 230 230;" xml:space="preserve">
<style type="text/css">
	.st0{fill:#FFFFFF;}
</style>
<path id="X" class="st0" d="M219.8,228.2L115,123.5L10.2,228.2c-2.4,2.3-6.2,2.3-8.5-0.1c-2.3-2.3-2.3-6.1,0-8.4L106.5,115L1.8,10.2
	c-2.3-2.4-2.3-6.2,0.1-8.5c2.3-2.3,6.1-2.3,8.4,0L115,106.5L219.8,1.8c2.4-2.3,6.2-2.3,8.5,0.1c2.3,2.3,2.3,6.1,0,8.4L123.5,115
	l104.8,104.8c2.4,2.3,2.4,6.1,0.1,8.5S222.2,230.6,219.8,228.2C219.8,228.3,219.8,228.3,219.8,228.2z"/>
</svg>
