<svg xmlns="http://www.w3.org/2000/svg" xmlns:xlink="http://www.w3.org/1999/xlink" id="Layer_1" x="0px" y="0px" viewBox="0 0 52.6 32.7" style="enable-background:new 0 0 52.6 32.7;" xml:space="preserve"><style type="text/css">	.st0{fill:#FFFFFF;}</style><path class="st0" d="M50.3,4.4H2.3c-1.1,0-2-0.9-2-2v0c0-1.1,0.9-2,2-2h47.9c1.1,0,2,0.9,2,2v0C52.3,3.5,51.4,4.4,50.3,4.4z"></path><path class="st0" d="M50.3,18.5H2.3c-1.1,0-2-0.9-2-2v0c0-1.1,0.9-2,2-2h47.9c1.1,0,2,0.9,2,2v0C52.3,17.6,51.4,18.5,50.3,18.5z"></path><path class="st0" d="M50.3,32.5H2.3c-1.1,0-2-0.9-2-2v0c0-1.1,0.9-2,2-2h47.9c1.1,0,2,0.9,2,2v0C52.3,31.6,51.4,32.5,50.3,32.5z"></path></svg>